<?xml version="1.0" standalone="no"?>
<!DOCTYPE svg PUBLIC "-//W3C//DTD SVG 20010904//EN"
 "http://www.w3.org/TR/2001/REC-SVG-20010904/DTD/svg10.dtd">
<svg version="1.0" xmlns="http://www.w3.org/2000/svg"
 width="1024.000000pt" height="1536.000000pt" viewBox="0 0 1024.000000 1536.000000"
 preserveAspectRatio="xMidYMid meet">

<g transform="translate(0.000000,1536.000000) scale(0.100000,-0.100000)"
fill="#000000" stroke="none">
<path d="M7156 13289 c-160 -38 -308 -205 -335 -379 -7 -40 -11 -311 -11 -702
0 -602 -1 -636 -18 -632 -13 4 -24 33 -44 117 -40 164 -93 294 -138 337 -20
19 -54 69 -75 110 -143 282 -373 486 -651 579 -218 73 -753 124 -1304 125
-525 1 -833 -38 -1135 -144 -336 -118 -659 -357 -829 -613 -143 -216 -288
-688 -334 -1087 l-7 -64 -136 -23 c-645 -105 -1099 -316 -1242 -575 -62 -113
-57 -192 18 -276 142 -158 488 -188 1162 -102 296 38 280 38 275 -4 -9 -74 62
-163 207 -260 55 -36 102 -69 105 -74 10 -17 -25 -112 -103 -280 -125 -268
-134 -294 -134 -392 -1 -96 16 -141 75 -197 41 -39 127 -79 191 -88 26 -4 47
-8 47 -10 0 -1 -20 -32 -45 -69 -53 -80 -85 -176 -85 -259 l0 -62 -56 100
c-126 224 -286 415 -448 537 -107 79 -277 162 -391 189 -250 59 -482 5 -650
-152 -118 -111 -167 -216 -167 -361 l0 -86 -33 -6 c-58 -11 -149 -64 -203
-118 -132 -131 -247 -405 -283 -674 -15 -113 -6 -338 16 -424 26 -99 82 -205
142 -268 29 -31 53 -57 53 -58 0 -1 -12 -5 -27 -8 -42 -11 -111 -64 -148 -114
-19 -26 -47 -83 -62 -127 -25 -75 -27 -91 -27 -260 0 -208 14 -303 75 -489 80
-244 234 -475 401 -601 33 -25 67 -49 76 -54 13 -7 9 -26 -31 -132 -98 -261
-145 -468 -154 -679 -10 -223 30 -373 126 -470 30 -30 53 -63 52 -72 -1 -9 3
-35 8 -56 26 -96 106 -142 247 -142 l90 0 22 -45 c34 -70 173 -208 285 -282
230 -154 525 -245 912 -283 60 -6 113 -16 116 -22 14 -23 65 -389 84 -603 9
-99 18 -190 21 -203 7 -36 72 -101 112 -112 25 -6 846 -10 2437 -10 1434 0
2456 -4 2540 -10 77 -5 248 -25 380 -44 309 -45 434 -56 625 -56 321 0 583 51
784 151 306 155 456 362 522 724 23 126 27 631 6 820 -15 129 -77 515 -93 579
-10 36 -8 40 20 68 36 35 35 30 16 213 -91 863 -303 1567 -613 2040 -215 329
-436 523 -787 691 -178 85 -271 120 -620 236 -255 85 -375 130 -375 141 0 1
34 3 76 5 177 7 384 64 563 155 278 142 530 389 625 612 35 82 47 216 26 280
-17 50 -73 111 -116 125 l-34 12 38 46 c260 311 359 738 210 906 -69 80 -161
86 -291 21 -117 -59 -246 -157 -576 -441 l-36 -32 0 117 c0 100 -3 122 -22
157 -83 156 -270 151 -443 -12 -74 -70 -130 -147 -240 -329 -98 -162 -101
-166 -125 -149 -38 28 -104 17 -190 -31 -85 -48 -229 -153 -359 -262 l-79 -65
6 103 c6 110 23 226 36 248 4 6 34 19 67 27 152 40 298 128 415 252 201 210
312 472 341 804 l12 138 955 2 956 3 58 23 c129 52 232 161 279 292 l23 65 3
1025 c2 698 -1 1046 -8 1090 -24 145 -117 268 -256 337 l-78 38 -1125 2 c-659
1 -1142 -3 -1165 -8z m2305 -145 c56 -26 114 -76 145 -126 56 -88 55 -69 52
-1174 l-3 -1019 -23 -57 c-31 -75 -101 -150 -177 -185 l-60 -28 -946 -3 -946
-2 -23 117 c-50 262 -156 479 -314 650 -66 71 -193 173 -215 173 -9 0 -11 174
-9 708 l3 707 24 59 c38 94 128 173 226 197 17 4 523 6 1125 6 1091 -2 1095
-2 1141 -23z m-5607 -889 c122 -26 211 -99 268 -220 71 -153 154 -590 146
-775 -4 -107 -22 -150 -92 -222 -56 -57 -90 -71 -189 -76 l-87 -4 -138 66
c-174 84 -238 100 -357 93 -102 -6 -198 -33 -299 -84 -55 -28 -84 -36 -145
-40 l-76 -4 30 26 c131 113 319 190 495 202 136 9 237 -14 391 -88 120 -57
133 -61 183 -57 65 5 114 38 142 95 48 97 -8 549 -97 783 -34 89 -83 152 -143
182 -103 53 -475 28 -784 -52 -137 -36 -226 -77 -280 -130 -112 -108 -230
-475 -278 -859 -8 -69 -16 -126 -17 -127 -1 -1 -26 -4 -56 -8 l-54 -7 7 63
c29 258 156 698 261 909 63 123 212 195 595 285 277 65 434 79 574 49z m-155
-340 c34 -17 41 -33 41 -87 0 -72 -78 -127 -145 -102 -22 9 -45 57 -45 96 0
42 23 76 64 94 40 17 51 17 85 -1z m-625 -99 c56 -33 122 -101 147 -154 27
-54 23 -153 -9 -224 -55 -126 -220 -226 -323 -198 -106 30 -178 195 -150 346
39 214 188 316 335 230z m818 -157 c11 -6 26 -26 34 -46 30 -70 -23 -143 -103
-143 -73 0 -105 49 -83 129 16 61 93 91 152 60z m-331 -38 c43 -43 41 -101 -5
-147 -28 -28 -41 -34 -78 -34 -62 0 -83 25 -83 97 0 49 3 58 33 84 44 40 93
40 133 0z m507 -795 c563 -38 1159 -109 1193 -143 12 -12 2 -40 -15 -46 -7 -3
-323 -1 -702 4 -1208 15 -2114 16 -2254 1 -631 -65 -1136 -254 -1228 -460
l-19 -43 -22 27 c-26 33 -26 47 -1 99 43 90 180 198 352 280 319 151 778 243
1463 295 174 13 960 4 1233 -14z m82 -391 c245 -13 641 -45 773 -61 45 -6 52
-12 127 -95 133 -149 160 -226 160 -471 0 -246 -40 -456 -116 -616 -47 -97
-136 -190 -322 -335 -167 -130 -271 -234 -344 -345 -47 -73 -127 -229 -143
-282 -4 -14 -16 -44 -26 -68 l-18 -42 -128 128 c-72 72 -170 157 -223 195
-104 73 -271 159 -392 202 -43 15 -78 29 -78 31 0 3 18 28 40 57 51 69 70 115
70 174 -1 83 -60 181 -133 220 -51 26 -58 12 -31 -62 28 -78 32 -169 8 -203
-27 -40 -46 -43 -141 -26 -112 21 -232 20 -353 0 -188 -32 -268 -17 -306 55
-24 47 -14 92 49 227 263 562 277 598 277 695 0 37 -7 55 -43 103 -63 87 -103
152 -132 217 -28 60 -40 65 -49 19 -6 -23 19 -142 39 -194 18 -45 -96 -4 -157
55 -58 58 -62 84 -34 220 13 65 25 120 28 122 18 19 542 68 943 88 163 8 406
5 655 -8z m4730 -685 c21 -38 23 -115 6 -199 -57 -283 -287 -565 -669 -821
-53 -36 -99 -73 -103 -83 -8 -24 13 -47 41 -47 32 0 201 52 342 104 155 57
188 64 213 41 46 -41 16 -169 -68 -292 -184 -271 -536 -484 -887 -538 -102
-16 -230 -15 -257 1 -5 3 7 27 25 52 74 101 107 194 107 303 0 164 -87 284
-245 339 -103 36 -179 36 -359 1 -184 -36 -383 -64 -429 -59 -32 3 -30 5 128
164 124 124 184 176 268 232 161 105 206 114 192 37 -20 -104 -19 -114 8 -126
21 -10 30 -9 43 2 10 8 81 111 159 229 155 234 280 398 341 447 91 72 147 90
174 58 29 -35 -10 -256 -76 -431 -34 -91 -35 -97 -18 -115 9 -10 25 -19 34
-19 17 0 179 131 390 315 225 196 425 349 517 395 69 35 108 38 123 10z
m-3263 -177 c67 -110 92 -175 102 -277 4 -45 15 -95 24 -113 37 -71 115 -98
189 -65 41 18 110 83 120 113 3 10 20 8 84 -10 43 -13 82 -26 86 -30 10 -9
-62 -135 -117 -204 -105 -132 -222 -162 -376 -96 -63 27 -84 19 -83 -33 2 -58
24 -90 88 -122 53 -28 68 -31 155 -31 53 0 107 3 121 7 l25 7 -3 -117 c-1 -64
-5 -126 -7 -138 -3 -12 -39 -44 -92 -79 -127 -84 -308 -218 -385 -286 -36 -33
-68 -59 -70 -59 -3 0 1 28 8 62 27 130 34 329 32 833 -2 281 1 569 6 640 10
149 0 149 93 -2z m-3935 -642 c166 -43 308 -130 464 -285 129 -129 241 -291
351 -506 136 -268 218 -481 229 -598 16 -172 77 -349 175 -508 l19 -31 -226
-78 c-129 -44 -229 -74 -233 -69 -5 5 -51 92 -103 194 -378 744 -781 1211
-1198 1391 -82 35 -85 38 -98 80 -49 161 99 355 315 414 74 20 217 18 305 -4z
m5646 -466 c45 -19 82 -49 106 -88 16 -25 21 -49 21 -113 0 -73 -3 -87 -37
-156 -71 -143 -223 -254 -424 -310 -66 -18 -105 -22 -234 -22 -167 1 -149 -3
-365 75 -80 29 -105 33 -219 37 -209 7 -312 -19 -626 -159 -99 -44 -185 -77
-190 -74 -28 17 -5 54 103 160 195 192 495 415 681 505 118 57 188 70 396 70
186 0 250 8 460 59 69 16 136 32 150 35 39 7 141 -4 178 -19z m-6306 -146
c153 -33 334 -155 539 -365 245 -253 452 -561 672 -1000 l85 -170 -96 -48
c-208 -103 -419 -245 -521 -350 l-45 -45 -35 42 c-184 220 -397 388 -661 521
-172 87 -226 123 -294 196 -163 177 -189 440 -80 818 49 172 151 334 235 378
62 32 125 39 201 23z m2263 -64 c262 -59 383 -115 421 -192 11 -23 20 -67 22
-114 4 -80 -7 -119 -34 -119 -8 0 -56 37 -107 82 -140 124 -190 141 -439 153
-126 6 -135 5 -178 -17 -35 -18 -58 -42 -100 -105 -30 -45 -56 -81 -57 -79 -2
1 -8 39 -14 84 -21 154 19 279 103 321 38 20 55 22 153 18 70 -3 154 -14 230
-32z m3020 -549 c149 -48 250 -128 307 -244 29 -59 33 -78 36 -163 3 -84 1
-104 -21 -158 -43 -106 -89 -172 -197 -282 -99 -101 -112 -109 -230 -168 -174
-85 -287 -113 -440 -109 -103 3 -121 6 -175 32 -71 35 -172 132 -205 196 -46
90 -62 152 -67 267 -5 88 -2 129 12 185 20 84 82 212 117 246 14 12 77 49 140
81 284 144 519 182 723 117z m-1061 -244 c2 -4 -11 -53 -29 -107 -46 -134 -60
-256 -46 -388 l11 -102 -69 -140 c-221 -444 -502 -850 -690 -998 -93 -73 -241
-144 -241 -117 0 5 18 67 41 137 85 267 116 426 89 458 -7 8 -23 15 -37 15
-21 0 -29 -10 -51 -62 -90 -214 -246 -477 -382 -643 -171 -208 -397 -363 -560
-382 -41 -5 -51 -3 -56 12 -15 38 14 102 287 634 49 95 60 146 37 169 -15 15
-49 15 -68 -1 -9 -7 -123 -133 -255 -282 -332 -375 -436 -473 -619 -583 -101
-61 -226 -106 -226 -82 0 21 99 241 136 301 35 59 43 96 22 117 -21 21 -38 13
-126 -62 -124 -105 -230 -179 -332 -230 -150 -75 -251 -83 -236 -18 27 115
207 379 383 562 112 117 215 200 366 296 116 73 134 95 102 128 -28 27 -64 18
-192 -49 -219 -114 -342 -201 -491 -348 -142 -140 -246 -292 -311 -457 -59
-150 -64 -241 -15 -299 63 -75 227 -68 404 18 95 46 93 46 87 7 -8 -50 9 -101
44 -130 69 -58 234 -18 434 106 97 61 283 200 348 262 l47 45 0 -85 c0 -90 7
-112 48 -156 123 -133 559 52 815 345 46 53 62 65 75 58 89 -48 295 12 450
130 30 22 50 34 46 27 -4 -7 -45 -69 -90 -138 -286 -430 -769 -899 -1156
-1121 -115 -66 -269 -133 -293 -127 -10 2 4 31 46 98 73 115 119 203 119 228
0 23 -19 42 -41 42 -10 0 -44 -24 -76 -53 -101 -93 -334 -276 -448 -352 -216
-144 -480 -245 -501 -190 -8 19 23 72 153 263 56 84 103 160 103 170 0 21 -19
42 -37 42 -7 0 -67 -38 -132 -84 -225 -158 -534 -333 -676 -384 -170 -61 -360
-89 -399 -60 -17 13 -17 19 -6 52 16 49 81 144 189 276 212 261 211 259 211
294 0 35 -13 46 -55 46 -25 0 -154 -118 -345 -314 -62 -64 -117 -116 -121
-116 -5 0 -20 20 -34 44 -110 188 -45 673 138 1030 106 208 253 402 443 586
138 133 257 220 422 307 243 130 437 186 962 278 173 31 396 75 495 100 632
156 1161 425 1702 866 134 109 173 133 187 111z m1649 -118 c50 -26 119 -65
152 -87 78 -53 200 -175 254 -256 65 -95 138 -257 168 -368 23 -86 26 -117 26
-258 0 -141 -3 -172 -26 -257 -27 -101 -84 -252 -112 -295 -29 -43 -46 -25
-91 93 -122 324 -245 474 -458 558 -171 68 -335 72 -456 11 -57 -29 -83 -57
-112 -120 -19 -42 -23 -66 -22 -155 0 -91 4 -117 31 -192 38 -109 110 -227
184 -299 88 -87 178 -113 187 -53 1 11 -28 62 -66 116 -38 53 -87 132 -110
175 -38 74 -68 160 -59 169 2 3 41 -5 85 -17 l81 -22 22 -66 c27 -83 116 -271
175 -373 25 -43 42 -83 38 -89 -9 -14 -160 -4 -259 18 -91 20 -153 45 -234 93
-272 162 -413 411 -380 674 6 45 14 84 18 89 4 4 53 16 109 27 123 23 166 41
284 120 218 146 333 269 413 443 42 91 69 219 63 303 -2 35 -3 64 -1 64 2 0
45 -21 96 -46z m-6069 -559 c212 -55 465 -237 651 -467 l62 -77 -69 -73 c-156
-165 -322 -396 -448 -625 -51 -93 -65 -111 -78 -104 -40 21 -160 142 -214 214
-147 199 -224 409 -247 676 -18 196 11 343 80 412 59 59 147 74 263 44z m4551
-200 c36 -35 91 -75 133 -97 l73 -37 -53 -27 c-67 -34 -167 -130 -201 -192
-59 -109 -72 -251 -47 -543 21 -250 -15 -430 -123 -620 -120 -210 -300 -337
-545 -385 -122 -24 -242 -14 -256 21 -3 8 21 49 56 97 130 175 213 320 277
480 16 40 63 184 105 319 142 462 200 614 306 804 37 66 89 162 115 214 l47
94 26 -34 c14 -19 53 -61 87 -94z m394 -252 c-13 -78 -10 -189 7 -271 19 -93
60 -198 171 -442 140 -305 183 -457 183 -644 0 -235 -89 -410 -248 -488 -64
-32 -72 -33 -182 -33 -107 0 -119 2 -170 28 -96 49 -94 43 -35 160 72 144 90
226 90 412 0 162 -6 198 -76 480 -88 349 -53 581 110 744 47 47 128 101 152
101 3 0 2 -21 -2 -47z m931 13 c120 -42 245 -122 284 -181 l15 -23 -36 10
c-20 5 -111 25 -202 44 -167 34 -371 91 -371 104 0 15 55 61 84 70 47 14 145
4 226 -24z m630 -1051 c75 -75 118 -111 124 -105 13 13 192 13 217 0 17 -10
19 -23 19 -149 l0 -138 100 -109 c86 -93 100 -113 98 -139 l-3 -30 -92 -3 -92
-3 -6 -32 c-2 -18 -12 -151 -20 -297 -12 -196 -19 -269 -30 -279 -11 -12 -42
-12 -196 -2 -100 6 -200 14 -223 17 l-41 6 3 63 4 63 83 81 c77 75 86 81 124
81 98 0 127 116 37 150 -43 16 -90 -9 -107 -57 -12 -33 -124 -154 -132 -142
-6 11 9 216 18 229 6 8 49 52 96 98 65 61 93 82 114 82 35 0 85 50 85 85 0 16
-12 38 -29 56 -60 59 -151 24 -151 -58 0 -34 -7 -46 -66 -103 l-66 -65 5 155
c4 136 7 160 26 190 28 47 26 76 -8 111 -68 67 -171 4 -140 -88 6 -18 19 -38
30 -43 17 -10 19 -23 19 -149 0 -76 -3 -172 -6 -213 l-7 -76 -68 77 c-62 68
-68 79 -62 106 17 75 -8 117 -72 117 -80 0 -120 -98 -60 -149 14 -13 32 -23
38 -23 7 0 61 -54 120 -119 l107 -120 -1 -53 c-1 -29 -4 -66 -8 -82 l-6 -28
-52 60 c-40 45 -53 68 -53 92 0 74 -86 105 -141 51 -54 -54 -30 -119 49 -130
33 -5 50 -19 120 -99 55 -62 82 -101 82 -118 0 -30 5 -30 -222 -4 -228 26
-269 34 -285 56 -10 14 -13 82 -13 290 l0 271 -54 6 c-119 12 -127 48 -28 132
37 31 123 110 192 174 311 292 461 421 488 421 21 0 52 -25 142 -115z m2411
-835 l56 -12 17 -77 c36 -159 77 -402 98 -576 28 -234 30 -634 5 -793 -40
-247 -135 -430 -282 -541 -133 -101 -314 -173 -534 -213 -156 -29 -507 -31
-716 -4 -501 63 -902 184 -1348 408 l-138 69 33 39 c51 60 136 201 174 288
118 272 92 557 -69 765 -16 20 -27 37 -24 37 2 0 62 -9 133 -20 449 -68 602
-67 1063 9 262 44 472 58 610 43 232 -26 407 -91 576 -216 112 -83 159 -90
129 -18 -49 119 -263 282 -444 341 -203 65 -538 67 -828 6 -40 -8 -78 -15 -83
-15 -19 0 103 99 209 171 217 146 545 271 812 308 41 6 86 13 100 15 52 9 397
-2 451 -14z m-4669 -55 c125 -22 262 -73 428 -158 497 -256 500 -257 673 -282
62 -9 126 -18 143 -21 l32 -4 -24 -58 c-13 -31 -24 -62 -24 -68 0 -6 -12 -16
-26 -22 -43 -20 -67 -91 -62 -181 6 -92 35 -171 94 -257 l44 -64 -26 -72 c-32
-89 -118 -259 -142 -281 -31 -28 -194 -50 -372 -50 -151 0 -173 2 -253 26 -92
28 -172 65 -270 124 l-59 36 -26 -22 c-15 -12 -54 -35 -87 -50 -103 -50 -119
-86 -50 -120 23 -11 38 -12 70 -3 l40 10 -30 -24 c-97 -79 -209 -103 -298 -65
-53 23 -122 82 -143 123 -32 61 21 158 221 408 58 72 105 139 105 148 0 31
-29 62 -58 62 -21 0 -52 -26 -149 -124 -67 -68 -153 -166 -191 -218 -38 -51
-80 -99 -94 -107 -24 -12 -31 -11 -85 22 -144 88 -175 169 -111 289 31 59 108
147 310 354 82 85 108 117 108 137 0 31 -32 67 -59 67 -26 0 -158 -118 -327
-292 -118 -121 -148 -159 -179 -222 -21 -42 -41 -76 -45 -76 -17 0 -112 95
-136 136 -40 68 -48 116 -28 183 15 52 27 67 163 201 240 237 503 443 628 490
103 39 181 46 295 25z m-2370 -594 c129 -358 272 -900 333 -1271 14 -85 28
-166 30 -180 l5 -25 -132 0 -133 0 -7 80 c-27 298 -79 645 -133 885 -33 151
-110 447 -138 534 -15 46 -18 71 -11 73 6 2 35 19 65 38 64 40 54 52 121 -134z
m-832 127 c1 -52 33 -112 74 -138 75 -46 232 -32 395 34 l59 24 17 -87 c8 -47
35 -177 59 -288 23 -112 40 -203 37 -203 -3 0 -67 7 -141 16 -406 46 -703 166
-901 364 -106 106 -106 102 10 140 55 17 162 62 238 100 76 38 141 69 146 69
4 1 7 -14 7 -31z m4884 -111 c94 -47 172 -123 215 -209 58 -116 54 -176 -17
-247 -85 -85 -175 -89 -299 -14 -72 43 -105 74 -149 140 -47 71 -65 126 -65
199 0 73 18 122 57 153 25 20 38 22 105 19 63 -2 88 -9 153 -41z"/>
<path d="M7185 13146 c-67 -21 -100 -43 -146 -94 -84 -93 -81 -62 -81 -824 1
-370 1 -685 1 -699 1 -19 14 -35 54 -62 244 -171 420 -468 483 -815 l17 -92
936 2 936 3 63 29 c77 36 142 104 174 184 l23 57 0 1040 0 1040 -33 67 c-37
75 -72 110 -152 147 l-55 26 -1090 2 c-861 1 -1098 -1 -1130 -11z m1213 -285
c22 -16 43 -35 47 -41 6 -9 10 -9 17 1 8 11 9 10 5 -3 -6 -19 15 -42 28 -30 5
4 5 1 1 -6 -11 -18 194 -227 207 -210 6 9 7 8 3 -5 -4 -12 14 -37 59 -85 l64
-67 1 80 c0 49 5 86 12 93 19 19 232 16 248 -3 10 -12 12 -63 7 -224 l-5 -208
154 -154 c127 -126 154 -158 152 -179 l-3 -25 -127 -3 -128 -3 -1 -322 c0
-177 -3 -342 -5 -367 -6 -54 -25 -85 -67 -110 -30 -19 -53 -20 -372 -20 -252
0 -344 3 -353 12 -8 8 -12 55 -11 152 l1 141 57 52 58 53 105 6 c58 4 114 3
124 -1 11 -5 23 -7 29 -6 5 2 7 -1 3 -5 -14 -14 15 -34 49 -34 73 0 109 84 58
135 -32 33 -78 33 -111 0 -23 -23 -33 -25 -107 -25 l-82 0 135 136 c74 74 151
143 170 153 19 9 34 23 32 30 -1 7 2 10 8 6 14 -9 31 41 24 71 -3 13 -18 33
-31 44 -36 28 -78 26 -109 -5 -22 -22 -25 -33 -22 -75 l3 -49 -154 -155 c-99
-101 -150 -159 -145 -167 4 -8 3 -10 -5 -5 -11 7 -59 -41 -54 -54 1 -3 -7 -7
-18 -7 -18 -2 -19 6 -19 161 l0 163 146 139 c81 77 159 144 174 150 34 15 60
50 60 82 0 31 -52 82 -84 82 -14 0 -37 -11 -52 -24 -23 -19 -28 -32 -29 -69 0
-44 -4 -50 -100 -151 -55 -58 -103 -106 -107 -106 -13 0 -10 488 3 496 8 4 7
9 -2 16 -11 8 -10 9 3 4 20 -6 38 20 38 54 0 32 -44 70 -80 70 -44 0 -82 -40
-78 -83 2 -20 8 -31 16 -29 8 1 11 -2 7 -8 -4 -6 -2 -17 4 -23 12 -15 17 -322
5 -322 -4 0 -27 20 -50 45 -39 42 -42 49 -37 86 7 52 -25 92 -79 101 -32 5
-41 1 -68 -25 -38 -39 -41 -88 -6 -128 18 -22 32 -28 69 -29 26 0 52 -7 59
-14 10 -11 10 -12 1 -7 -26 15 -11 -8 52 -77 l65 -71 0 -124 c0 -108 -2 -123
-15 -112 -8 6 -18 9 -23 6 -6 -3 -9 2 -8 11 0 9 -14 26 -32 37 -19 12 -86 68
-150 125 -96 85 -117 109 -115 129 6 73 -59 124 -122 98 -89 -37 -66 -165 30
-171 35 -2 52 -14 137 -95 97 -91 98 -92 92 -130 -6 -34 -3 -43 24 -70 34 -33
59 -37 102 -15 27 14 31 13 55 -8 l26 -22 -3 -163 -3 -163 -150 141 c-112 105
-151 148 -153 168 -5 46 -22 79 -48 91 -39 18 -73 13 -99 -14 -54 -53 -16
-145 58 -145 31 0 49 -14 153 -113 66 -62 147 -140 182 -172 l63 -59 -3 -55
-3 -56 -348 -3 c-385 -3 -389 -2 -427 61 -19 30 -20 53 -20 390 l0 357 -109 0
c-106 0 -110 1 -130 26 -12 15 -18 32 -13 39 15 26 998 1017 1022 1030 14 8
48 14 76 15 41 0 59 -6 92 -29z m-63 -459 c-3 -3 -11 0 -18 7 -9 10 -8 11 6 5
10 -3 15 -9 12 -12z m-18 -459 c-3 -10 -5 -2 -5 17 0 19 2 27 5 18 2 -10 2
-26 0 -35z m-326 -180 c13 -16 12 -17 -3 -4 -17 13 -22 21 -14 21 2 0 10 -8
17 -17z m1166 -60 c-3 -10 -5 -2 -5 17 0 19 2 27 5 18 2 -10 2 -26 0 -35z
m-407 -227 c0 -2 -9 -6 -20 -9 -11 -3 -18 -1 -14 4 5 9 34 13 34 5z m-433 -58
c-3 -7 -5 -2 -5 12 0 14 2 19 5 13 2 -7 2 -19 0 -25z m301 15 c-15 -2 -42 -2
-60 0 -18 2 -6 4 27 4 33 0 48 -2 33 -4z m-781 -479 c-3 -3 -12 -4 -19 -1 -8
3 -5 6 6 6 11 1 17 -2 13 -5z"/>
<path d="M2930 11725 c-7 -9 -13 -39 -14 -68 l-1 -51 -44 -8 c-57 -10 -66 -19
-64 -69 3 -58 17 -72 70 -64 l43 6 0 -48 c0 -86 35 -122 85 -89 23 15 25 23
25 91 0 80 -3 76 67 90 41 8 55 26 51 67 l-3 33 -57 0 -58 0 -5 45 c-3 25 -10
52 -14 60 -11 21 -65 25 -81 5z"/>
<path d="M3750 10287 c-162 -57 -271 -102 -453 -189 l-148 -70 -70 22 c-39 11
-74 20 -78 18 -4 -2 -4 -18 1 -35 13 -48 117 -154 190 -194 63 -34 63 -34 219
-37 l157 -4 6 -50 c6 -40 15 -59 42 -86 32 -32 38 -34 83 -30 73 7 111 40 141
121 11 30 -15 28 313 31 135 1 150 3 163 20 8 11 14 23 14 28 0 21 -86 46
-305 88 -121 24 -199 53 -193 72 12 34 166 92 452 169 83 23 157 47 165 54 16
16 6 51 -19 65 -29 15 -252 40 -410 46 l-145 5 -125 -44z"/>
<path d="M5627 7342 c-23 -25 -21 -50 8 -127 73 -194 206 -295 389 -295 137 0
294 102 404 262 37 54 40 78 11 104 -20 18 -22 18 -67 0 -145 -55 -165 -59
-282 -60 -135 -1 -203 18 -337 90 -93 49 -103 52 -126 26z"/>
<path d="M6614 3814 c-11 -43 2 -192 19 -218 11 -17 29 -25 63 -30 78 -10 202
-7 210 6 13 21 -42 55 -119 72 l-74 17 -6 60 c-9 78 -30 119 -62 119 -18 0
-26 -7 -31 -26z"/>
</g>
</svg>
